G04 #@! TF.GenerationSoftware,KiCad,Pcbnew,10.0.6*
G04 #@! TF.CreationDate,2026-09-25T09:34:45+03:00*
G04 #@! TF.ProjectId,dof buton,646f6620-6275-4746-9f6e-2e6b69636164,rev?*
G04 #@! TF.SameCoordinates,Original*
G04 #@! TF.FileFunction,Copper,L2,Bot*
G04 #@! TF.FilePolarity,Positive*
%FSLAX46Y46*%
G04 Gerber Fmt 4.6, Leading zero omitted, Abs format (unit mm)*
G04 Created by KiCad (PCBNEW 10.0.6) date 2026-09-25 09:34:45*
%MOMM*%
%LPD*%
G01*
G04 APERTURE LIST*
G04 #@! TA.AperFunction,ComponentPad*
%ADD10O,1.900000X1.100000*%
G04 #@! TD*
G04 #@! TA.AperFunction,ComponentPad*
%ADD11O,1.600000X1.200000*%
G04 #@! TD*
G04 #@! TA.AperFunction,ComponentPad*
%ADD12C,2.400000*%
G04 #@! TD*
G04 #@! TA.AperFunction,ViaPad*
%ADD13C,0.600000*%
G04 #@! TD*
G04 #@! TA.AperFunction,Conductor*
%ADD14C,0.200000*%
G04 #@! TD*
G04 APERTURE END LIST*
D10*
G04 #@! TO.P,USB1,13,EH_13*
G04 #@! TO.N,GND*
X172412500Y-94230000D03*
D11*
X168202500Y-94230000D03*
D10*
G04 #@! TO.P,USB1,14,EH_14*
X172412500Y-102870000D03*
D11*
X168202500Y-102870000D03*
G04 #@! TD*
D12*
G04 #@! TO.P,U2,1,1_1*
G04 #@! TO.N,/BTN1_IN*
X201676000Y-107696000D03*
G04 #@! TO.P,U2,2,2_2*
G04 #@! TO.N,/BTN2_IN*
X201676000Y-102616000D03*
G04 #@! TO.P,U2,3,3_3*
G04 #@! TO.N,GND*
X201676000Y-97536000D03*
G04 #@! TD*
D13*
G04 #@! TO.N,GND*
X204700000Y-112400000D03*
X192100000Y-89800000D03*
X175700000Y-103800000D03*
X179750000Y-100700000D03*
X190350000Y-112400000D03*
X174550000Y-111200000D03*
X179529500Y-107699071D03*
X169450000Y-90750000D03*
X205150000Y-90650000D03*
X200100000Y-104700000D03*
X176450000Y-99000000D03*
G04 #@! TO.N,/BTN2*
X192000000Y-95400000D03*
X183600000Y-92950000D03*
G04 #@! TO.N,+5V*
X179197000Y-102108000D03*
X189865000Y-106045000D03*
X191516000Y-101092000D03*
X171450000Y-97663000D03*
X174052280Y-100987301D03*
X179070000Y-98999000D03*
G04 #@! TO.N,Net-(USB1-CC2)*
X174209998Y-100203000D03*
X174971000Y-95964602D03*
G04 #@! TD*
G04 #@! TO.N,/BTN2*
D14*
X191450000Y-92950000D02*
X192000000Y-93500000D01*
X192000000Y-95400000D02*
X192000000Y-95350000D01*
X192000000Y-93500000D02*
X192000000Y-95400000D01*
X183600000Y-92950000D02*
X191450000Y-92950000D01*
G04 #@! TO.N,+5V*
X189484000Y-103632000D02*
X189484000Y-101600000D01*
X189484000Y-105664000D02*
X189865000Y-106045000D01*
X189484000Y-101600000D02*
X189992000Y-101092000D01*
X174052280Y-100987301D02*
X173885301Y-100987301D01*
X172339000Y-100330000D02*
X171450000Y-99441000D01*
X189484000Y-104902000D02*
X189484000Y-105664000D01*
X188849000Y-104267000D02*
X189484000Y-103632000D01*
X178054000Y-100965000D02*
X179197000Y-102108000D01*
X179100000Y-99029000D02*
X179070000Y-98999000D01*
X179100000Y-102011000D02*
X179100000Y-99029000D01*
X171450000Y-99441000D02*
X171450000Y-97663000D01*
X174052280Y-100987301D02*
X174029979Y-100965000D01*
X173885301Y-100987301D02*
X173228000Y-100330000D01*
X174052280Y-100987301D02*
X174050000Y-100989581D01*
X174074581Y-100965000D02*
X178054000Y-100965000D01*
X179197000Y-103759000D02*
X179197000Y-102108000D01*
X179197000Y-102108000D02*
X179100000Y-102011000D01*
X179705000Y-104267000D02*
X188849000Y-104267000D01*
X174052280Y-100987301D02*
X174074581Y-100965000D01*
X179197000Y-103759000D02*
X179705000Y-104267000D01*
X173228000Y-100330000D02*
X172339000Y-100330000D01*
X189992000Y-101092000D02*
X191516000Y-101092000D01*
X188849000Y-104267000D02*
X189484000Y-104902000D01*
G04 #@! TO.N,Net-(USB1-CC2)*
X174971000Y-99730000D02*
X174498000Y-100203000D01*
X174498000Y-100203000D02*
X174209998Y-100203000D01*
X174971000Y-95964602D02*
X174971000Y-99730000D01*
G04 #@! TD*
G04 #@! TA.AperFunction,Conductor*
G04 #@! TO.N,GND*
G36*
X206742539Y-89020185D02*
G01*
X206788294Y-89072989D01*
X206799500Y-89124500D01*
X206799500Y-113525500D01*
X206779815Y-113592539D01*
X206727011Y-113638294D01*
X206675500Y-113649500D01*
X167129000Y-113649500D01*
X167061961Y-113629815D01*
X167016206Y-113577011D01*
X167005000Y-113525500D01*
X167005000Y-107584549D01*
X199975500Y-107584549D01*
X199975500Y-107807450D01*
X199975501Y-107807466D01*
X200004594Y-108028452D01*
X200004595Y-108028457D01*
X200004596Y-108028463D01*
X200004597Y-108028465D01*
X200062290Y-108243780D01*
X200062293Y-108243790D01*
X200147593Y-108449722D01*
X200147595Y-108449726D01*
X200259052Y-108642774D01*
X200259057Y-108642780D01*
X200259058Y-108642782D01*
X200394751Y-108819622D01*
X200394757Y-108819629D01*
X200552370Y-108977242D01*
X200552376Y-108977247D01*
X200729226Y-109112948D01*
X200922274Y-109224405D01*
X201128219Y-109309710D01*
X201343537Y-109367404D01*
X201564543Y-109396500D01*
X201564550Y-109396500D01*
X201787450Y-109396500D01*
X201787457Y-109396500D01*
X202008463Y-109367404D01*
X202223781Y-109309710D01*
X202429726Y-109224405D01*
X202622774Y-109112948D01*
X202799624Y-108977247D01*
X202957247Y-108819624D01*
X203092948Y-108642774D01*
X203204405Y-108449726D01*
X203289710Y-108243781D01*
X203347404Y-108028463D01*
X203376500Y-107807457D01*
X203376500Y-107584543D01*
X203347404Y-107363537D01*
X203289710Y-107148219D01*
X203204405Y-106942274D01*
X203092948Y-106749226D01*
X202957247Y-106572376D01*
X202957242Y-106572370D01*
X202799629Y-106414757D01*
X202799622Y-106414751D01*
X202622782Y-106279058D01*
X202622780Y-106279057D01*
X202622774Y-106279052D01*
X202429726Y-106167595D01*
X202429722Y-106167593D01*
X202223790Y-106082293D01*
X202223783Y-106082291D01*
X202223781Y-106082290D01*
X202008463Y-106024596D01*
X202008457Y-106024595D01*
X202008452Y-106024594D01*
X201787466Y-105995501D01*
X201787463Y-105995500D01*
X201787457Y-105995500D01*
X201564543Y-105995500D01*
X201564537Y-105995500D01*
X201564533Y-105995501D01*
X201343547Y-106024594D01*
X201343540Y-106024595D01*
X201343537Y-106024596D01*
X201128219Y-106082290D01*
X201128209Y-106082293D01*
X200922277Y-106167593D01*
X200922273Y-106167595D01*
X200729226Y-106279052D01*
X200729217Y-106279058D01*
X200552377Y-106414751D01*
X200552370Y-106414757D01*
X200394757Y-106572370D01*
X200394751Y-106572377D01*
X200259058Y-106749217D01*
X200259052Y-106749226D01*
X200147595Y-106942273D01*
X200147593Y-106942277D01*
X200062293Y-107148209D01*
X200062290Y-107148219D01*
X200004597Y-107363534D01*
X200004594Y-107363547D01*
X199975501Y-107584533D01*
X199975500Y-107584549D01*
X167005000Y-107584549D01*
X167005000Y-97584153D01*
X170649500Y-97584153D01*
X170649500Y-97741846D01*
X170680261Y-97896489D01*
X170680264Y-97896501D01*
X170740602Y-98042172D01*
X170740609Y-98042185D01*
X170828602Y-98173874D01*
X170849480Y-98240551D01*
X170849500Y-98242765D01*
X170849500Y-99354330D01*
X170849499Y-99354348D01*
X170849499Y-99520054D01*
X170849498Y-99520054D01*
X170890423Y-99672786D01*
X170899795Y-99689018D01*
X170901926Y-99692709D01*
X170904820Y-99697720D01*
X170904821Y-99697725D01*
X170904823Y-99697725D01*
X170965195Y-99802294D01*
X170969479Y-99809714D01*
X170969481Y-99809717D01*
X171088349Y-99928585D01*
X171088355Y-99928590D01*
X171854139Y-100694374D01*
X171854160Y-100694397D01*
X171888580Y-100728817D01*
X171922065Y-100790140D01*
X171917081Y-100859832D01*
X171875209Y-100915765D01*
X171824225Y-100936530D01*
X171824458Y-100937397D01*
X171817557Y-100939245D01*
X171817091Y-100939436D01*
X171816613Y-100939498D01*
X171689312Y-100973608D01*
X171575186Y-101039500D01*
X171575183Y-101039502D01*
X171482002Y-101132683D01*
X171482000Y-101132686D01*
X171416108Y-101246812D01*
X171392545Y-101334753D01*
X171382000Y-101374108D01*
X171382000Y-101505892D01*
X171397972Y-101565500D01*
X171416108Y-101633187D01*
X171436916Y-101669226D01*
X171482000Y-101747314D01*
X171575186Y-101840500D01*
X171689314Y-101906392D01*
X171816608Y-101940500D01*
X171816610Y-101940500D01*
X171948390Y-101940500D01*
X171948392Y-101940500D01*
X172075686Y-101906392D01*
X172189814Y-101840500D01*
X172283000Y-101747314D01*
X172348892Y-101633186D01*
X172383000Y-101505892D01*
X172383000Y-101374108D01*
X172348892Y-101246814D01*
X172283000Y-101132686D01*
X172282995Y-101132681D01*
X172280929Y-101129988D01*
X172279889Y-101127300D01*
X172278936Y-101125648D01*
X172279193Y-101125499D01*
X172255735Y-101064818D01*
X172269773Y-100996374D01*
X172318587Y-100946384D01*
X172379305Y-100930501D01*
X172425653Y-100930501D01*
X172425669Y-100930500D01*
X172927903Y-100930500D01*
X172994942Y-100950185D01*
X173015584Y-100966819D01*
X173274279Y-101225514D01*
X173301159Y-101265742D01*
X173342884Y-101366477D01*
X173342889Y-101366486D01*
X173430490Y-101497589D01*
X173430493Y-101497593D01*
X173541987Y-101609087D01*
X173541991Y-101609090D01*
X173673094Y-101696691D01*
X173673107Y-101696698D01*
X173818778Y-101757036D01*
X173818783Y-101757038D01*
X173973433Y-101787800D01*
X173973436Y-101787801D01*
X173973438Y-101787801D01*
X174131124Y-101787801D01*
X174131125Y-101787800D01*
X174285777Y-101757038D01*
X174431459Y-101696695D01*
X174562569Y-101609090D01*
X174562572Y-101609087D01*
X174569841Y-101601819D01*
X174631164Y-101568334D01*
X174657522Y-101565500D01*
X177753903Y-101565500D01*
X177820942Y-101585185D01*
X177841584Y-101601819D01*
X178362425Y-102122660D01*
X178395910Y-102183983D01*
X178396361Y-102186149D01*
X178427261Y-102341491D01*
X178427264Y-102341501D01*
X178487602Y-102487172D01*
X178487609Y-102487185D01*
X178575602Y-102618874D01*
X178596480Y-102685551D01*
X178596500Y-102687765D01*
X178596500Y-103672330D01*
X178596499Y-103672348D01*
X178596499Y-103838054D01*
X178596498Y-103838054D01*
X178637423Y-103990787D01*
X178643156Y-104000716D01*
X178643158Y-104000718D01*
X178716477Y-104127712D01*
X178716481Y-104127717D01*
X178835349Y-104246585D01*
X178835355Y-104246590D01*
X179220139Y-104631374D01*
X179220149Y-104631385D01*
X179224479Y-104635715D01*
X179224480Y-104635716D01*
X179336284Y-104747520D01*
X179336286Y-104747521D01*
X179336290Y-104747524D01*
X179466922Y-104822943D01*
X179473216Y-104826577D01*
X179585019Y-104856534D01*
X179625942Y-104867500D01*
X179625943Y-104867500D01*
X188548903Y-104867500D01*
X188615942Y-104887185D01*
X188636584Y-104903819D01*
X188847181Y-105114416D01*
X188880666Y-105175739D01*
X188883500Y-105202097D01*
X188883500Y-105577330D01*
X188883499Y-105577348D01*
X188883499Y-105743054D01*
X188883498Y-105743054D01*
X188924423Y-105895785D01*
X188953358Y-105945900D01*
X188953359Y-105945904D01*
X188953360Y-105945904D01*
X189003479Y-106032714D01*
X189003481Y-106032717D01*
X189030426Y-106059662D01*
X189063911Y-106120985D01*
X189064362Y-106123151D01*
X189095261Y-106278491D01*
X189095264Y-106278501D01*
X189155602Y-106424172D01*
X189155609Y-106424185D01*
X189243210Y-106555288D01*
X189243213Y-106555292D01*
X189354707Y-106666786D01*
X189354711Y-106666789D01*
X189485814Y-106754390D01*
X189485827Y-106754397D01*
X189631498Y-106814735D01*
X189631503Y-106814737D01*
X189786153Y-106845499D01*
X189786156Y-106845500D01*
X189786158Y-106845500D01*
X189943844Y-106845500D01*
X189943845Y-106845499D01*
X190098497Y-106814737D01*
X190244179Y-106754394D01*
X190375289Y-106666789D01*
X190486789Y-106555289D01*
X190574394Y-106424179D01*
X190634737Y-106278497D01*
X190665500Y-106123842D01*
X190665500Y-105966158D01*
X190665500Y-105966155D01*
X190665499Y-105966153D01*
X190634738Y-105811510D01*
X190634737Y-105811503D01*
X190606385Y-105743054D01*
X190574397Y-105665827D01*
X190574390Y-105665814D01*
X190486789Y-105534711D01*
X190486786Y-105534707D01*
X190375292Y-105423213D01*
X190375288Y-105423210D01*
X190244185Y-105335609D01*
X190244175Y-105335604D01*
X190161047Y-105301171D01*
X190106644Y-105257330D01*
X190084579Y-105191035D01*
X190084500Y-105186610D01*
X190084500Y-104991060D01*
X190084501Y-104991047D01*
X190084501Y-104822944D01*
X190043576Y-104670214D01*
X190043573Y-104670209D01*
X189964524Y-104533290D01*
X189964518Y-104533282D01*
X189785916Y-104354681D01*
X189752431Y-104293358D01*
X189757415Y-104223667D01*
X189785916Y-104179319D01*
X189820831Y-104144404D01*
X189964520Y-104000716D01*
X190043577Y-103863784D01*
X190084501Y-103711057D01*
X190084501Y-103552942D01*
X190084501Y-103545347D01*
X190084500Y-103545329D01*
X190084500Y-102504549D01*
X199975500Y-102504549D01*
X199975500Y-102727450D01*
X199975501Y-102727466D01*
X200004594Y-102948452D01*
X200004595Y-102948457D01*
X200004596Y-102948463D01*
X200004597Y-102948465D01*
X200062290Y-103163780D01*
X200062293Y-103163790D01*
X200147593Y-103369722D01*
X200147595Y-103369726D01*
X200259052Y-103562774D01*
X200259057Y-103562780D01*
X200259058Y-103562782D01*
X200394751Y-103739622D01*
X200394757Y-103739629D01*
X200552370Y-103897242D01*
X200552376Y-103897247D01*
X200729226Y-104032948D01*
X200922274Y-104144405D01*
X201128219Y-104229710D01*
X201343537Y-104287404D01*
X201564543Y-104316500D01*
X201564550Y-104316500D01*
X201787450Y-104316500D01*
X201787457Y-104316500D01*
X202008463Y-104287404D01*
X202223781Y-104229710D01*
X202429726Y-104144405D01*
X202622774Y-104032948D01*
X202799624Y-103897247D01*
X202957247Y-103739624D01*
X203092948Y-103562774D01*
X203204405Y-103369726D01*
X203289710Y-103163781D01*
X203347404Y-102948463D01*
X203376500Y-102727457D01*
X203376500Y-102504543D01*
X203347404Y-102283537D01*
X203289710Y-102068219D01*
X203273530Y-102029158D01*
X203216925Y-101892500D01*
X203204405Y-101862274D01*
X203092948Y-101669226D01*
X203038070Y-101597707D01*
X202957248Y-101492377D01*
X202957242Y-101492370D01*
X202799629Y-101334757D01*
X202799622Y-101334751D01*
X202622782Y-101199058D01*
X202622780Y-101199057D01*
X202622774Y-101199052D01*
X202429726Y-101087595D01*
X202429722Y-101087593D01*
X202223790Y-101002293D01*
X202223783Y-101002291D01*
X202223781Y-101002290D01*
X202008463Y-100944596D01*
X202008457Y-100944595D01*
X202008452Y-100944594D01*
X201787466Y-100915501D01*
X201787463Y-100915500D01*
X201787457Y-100915500D01*
X201564543Y-100915500D01*
X201564537Y-100915500D01*
X201564533Y-100915501D01*
X201343547Y-100944594D01*
X201343540Y-100944595D01*
X201343537Y-100944596D01*
X201150298Y-100996374D01*
X201128219Y-101002290D01*
X201128209Y-101002293D01*
X200922277Y-101087593D01*
X200922273Y-101087595D01*
X200729226Y-101199052D01*
X200729217Y-101199058D01*
X200552377Y-101334751D01*
X200552370Y-101334757D01*
X200394757Y-101492370D01*
X200394751Y-101492377D01*
X200259058Y-101669217D01*
X200259052Y-101669226D01*
X200147595Y-101862273D01*
X200147593Y-101862277D01*
X200062293Y-102068209D01*
X200062290Y-102068219D01*
X200004597Y-102283534D01*
X200004594Y-102283547D01*
X199975501Y-102504533D01*
X199975500Y-102504549D01*
X190084500Y-102504549D01*
X190084500Y-101900097D01*
X190104185Y-101833058D01*
X190120819Y-101812416D01*
X190204416Y-101728819D01*
X190265739Y-101695334D01*
X190292097Y-101692500D01*
X190936234Y-101692500D01*
X191003273Y-101712185D01*
X191005125Y-101713398D01*
X191136814Y-101801390D01*
X191136827Y-101801397D01*
X191251113Y-101848735D01*
X191282503Y-101861737D01*
X191437153Y-101892499D01*
X191437156Y-101892500D01*
X191437158Y-101892500D01*
X191594844Y-101892500D01*
X191594845Y-101892499D01*
X191749497Y-101861737D01*
X191895179Y-101801394D01*
X192026289Y-101713789D01*
X192137789Y-101602289D01*
X192225394Y-101471179D01*
X192285737Y-101325497D01*
X192316500Y-101170842D01*
X192316500Y-101013158D01*
X192316500Y-101013155D01*
X192316499Y-101013153D01*
X192308633Y-100973608D01*
X192285737Y-100858503D01*
X192265862Y-100810520D01*
X192225397Y-100712827D01*
X192225390Y-100712814D01*
X192137789Y-100581711D01*
X192137786Y-100581707D01*
X192026292Y-100470213D01*
X192026288Y-100470210D01*
X191895185Y-100382609D01*
X191895172Y-100382602D01*
X191749501Y-100322264D01*
X191749489Y-100322261D01*
X191594845Y-100291500D01*
X191594842Y-100291500D01*
X191437158Y-100291500D01*
X191437155Y-100291500D01*
X191282510Y-100322261D01*
X191282498Y-100322264D01*
X191136827Y-100382602D01*
X191136814Y-100382609D01*
X191005125Y-100470602D01*
X190938447Y-100491480D01*
X190936234Y-100491500D01*
X189912940Y-100491500D01*
X189872019Y-100502464D01*
X189872019Y-100502465D01*
X189834751Y-100512451D01*
X189760214Y-100532423D01*
X189760209Y-100532426D01*
X189623290Y-100611475D01*
X189623282Y-100611481D01*
X189003479Y-101231284D01*
X188983586Y-101265742D01*
X188966447Y-101295428D01*
X188924423Y-101368215D01*
X188883499Y-101520943D01*
X188883499Y-101520945D01*
X188883499Y-101689046D01*
X188883500Y-101689059D01*
X188883500Y-103331902D01*
X188863815Y-103398941D01*
X188847181Y-103419583D01*
X188636584Y-103630181D01*
X188575261Y-103663666D01*
X188548903Y-103666500D01*
X180005097Y-103666500D01*
X179938058Y-103646815D01*
X179917416Y-103630181D01*
X179833819Y-103546584D01*
X179800334Y-103485261D01*
X179797500Y-103458903D01*
X179797500Y-102687765D01*
X179817185Y-102620726D01*
X179818398Y-102618874D01*
X179906390Y-102487185D01*
X179906390Y-102487184D01*
X179906394Y-102487179D01*
X179966737Y-102341497D01*
X179997500Y-102186842D01*
X179997500Y-102029158D01*
X179997500Y-102029155D01*
X179997499Y-102029153D01*
X179966737Y-101874503D01*
X179952652Y-101840499D01*
X179906397Y-101728827D01*
X179906390Y-101728814D01*
X179818789Y-101597711D01*
X179818786Y-101597707D01*
X179736819Y-101515740D01*
X179703334Y-101454417D01*
X179700500Y-101428059D01*
X179700500Y-99533867D01*
X179720185Y-99466828D01*
X179721398Y-99464976D01*
X179763143Y-99402500D01*
X179779394Y-99378179D01*
X179839737Y-99232497D01*
X179870500Y-99077842D01*
X179870500Y-98920158D01*
X179870500Y-98920155D01*
X179870499Y-98920153D01*
X179839738Y-98765510D01*
X179839737Y-98765503D01*
X179839735Y-98765498D01*
X179779397Y-98619827D01*
X179779390Y-98619814D01*
X179691789Y-98488711D01*
X179691786Y-98488707D01*
X179580292Y-98377213D01*
X179580288Y-98377210D01*
X179449185Y-98289609D01*
X179449172Y-98289602D01*
X179303501Y-98229264D01*
X179303489Y-98229261D01*
X179148845Y-98198500D01*
X179148842Y-98198500D01*
X178991158Y-98198500D01*
X178991155Y-98198500D01*
X178836510Y-98229261D01*
X178836498Y-98229264D01*
X178690827Y-98289602D01*
X178690814Y-98289609D01*
X178559711Y-98377210D01*
X178559707Y-98377213D01*
X178448213Y-98488707D01*
X178448210Y-98488711D01*
X178360609Y-98619814D01*
X178360602Y-98619827D01*
X178300264Y-98765498D01*
X178300261Y-98765510D01*
X178269500Y-98920153D01*
X178269500Y-99077846D01*
X178300261Y-99232489D01*
X178300264Y-99232501D01*
X178360602Y-99378172D01*
X178360609Y-99378185D01*
X178448209Y-99509287D01*
X178448210Y-99509288D01*
X178448211Y-99509289D01*
X178463180Y-99524258D01*
X178496666Y-99585579D01*
X178499500Y-99611940D01*
X178499500Y-100314037D01*
X178479815Y-100381076D01*
X178427011Y-100426831D01*
X178357853Y-100436775D01*
X178313503Y-100421426D01*
X178295163Y-100410838D01*
X178295155Y-100410833D01*
X178285787Y-100405423D01*
X178200643Y-100382609D01*
X178133057Y-100364499D01*
X177974943Y-100364499D01*
X177967347Y-100364499D01*
X177967331Y-100364500D01*
X175485098Y-100364500D01*
X175418059Y-100344815D01*
X175372304Y-100292011D01*
X175362360Y-100222853D01*
X175391385Y-100159297D01*
X175397417Y-100152819D01*
X175451520Y-100098716D01*
X175508180Y-100000577D01*
X175530577Y-99961785D01*
X175571501Y-99809057D01*
X175571501Y-99650943D01*
X175571501Y-99643348D01*
X175571500Y-99643330D01*
X175571500Y-96544367D01*
X175591185Y-96477328D01*
X175592398Y-96475476D01*
X175680390Y-96343787D01*
X175680390Y-96343786D01*
X175680394Y-96343781D01*
X175740737Y-96198099D01*
X175771500Y-96043444D01*
X175771500Y-95885760D01*
X175771500Y-95885757D01*
X175771499Y-95885755D01*
X175765021Y-95853187D01*
X175740737Y-95731105D01*
X175738577Y-95725890D01*
X175680397Y-95585429D01*
X175680390Y-95585416D01*
X175592789Y-95454313D01*
X175592786Y-95454309D01*
X175481292Y-95342815D01*
X175481288Y-95342812D01*
X175350185Y-95255211D01*
X175350172Y-95255204D01*
X175204501Y-95194866D01*
X175204489Y-95194863D01*
X175049845Y-95164102D01*
X175049842Y-95164102D01*
X174892158Y-95164102D01*
X174892155Y-95164102D01*
X174737510Y-95194863D01*
X174737498Y-95194866D01*
X174591827Y-95255204D01*
X174591814Y-95255211D01*
X174460711Y-95342812D01*
X174460707Y-95342815D01*
X174349213Y-95454309D01*
X174349210Y-95454313D01*
X174261609Y-95585416D01*
X174261602Y-95585429D01*
X174201264Y-95731100D01*
X174201261Y-95731112D01*
X174170500Y-95885755D01*
X174170500Y-96043448D01*
X174201261Y-96198091D01*
X174201264Y-96198103D01*
X174261602Y-96343774D01*
X174261609Y-96343787D01*
X174349602Y-96475476D01*
X174370480Y-96542153D01*
X174370500Y-96544367D01*
X174370500Y-99278500D01*
X174350815Y-99345539D01*
X174298011Y-99391294D01*
X174246500Y-99402500D01*
X174131153Y-99402500D01*
X173976508Y-99433261D01*
X173976496Y-99433264D01*
X173830825Y-99493602D01*
X173830812Y-99493609D01*
X173699709Y-99581210D01*
X173699705Y-99581213D01*
X173588215Y-99692704D01*
X173588210Y-99692709D01*
X173574031Y-99713929D01*
X173520417Y-99758732D01*
X173451092Y-99767438D01*
X173438837Y-99764810D01*
X173307057Y-99729499D01*
X173148943Y-99729499D01*
X173141347Y-99729499D01*
X173141331Y-99729500D01*
X172639097Y-99729500D01*
X172572058Y-99709815D01*
X172551416Y-99693181D01*
X172086819Y-99228584D01*
X172053334Y-99167261D01*
X172050500Y-99140903D01*
X172050500Y-98242765D01*
X172070185Y-98175726D01*
X172071398Y-98173874D01*
X172159390Y-98042185D01*
X172159390Y-98042184D01*
X172159394Y-98042179D01*
X172219737Y-97896497D01*
X172250500Y-97741842D01*
X172250500Y-97584158D01*
X172250500Y-97584155D01*
X172250499Y-97584153D01*
X172219738Y-97429510D01*
X172219737Y-97429503D01*
X172219735Y-97429498D01*
X172159397Y-97283827D01*
X172159390Y-97283814D01*
X172071789Y-97152711D01*
X172071786Y-97152707D01*
X171960292Y-97041213D01*
X171960288Y-97041210D01*
X171829185Y-96953609D01*
X171829172Y-96953602D01*
X171683501Y-96893264D01*
X171683489Y-96893261D01*
X171528845Y-96862500D01*
X171528842Y-96862500D01*
X171371158Y-96862500D01*
X171371155Y-96862500D01*
X171216510Y-96893261D01*
X171216498Y-96893264D01*
X171070827Y-96953602D01*
X171070814Y-96953609D01*
X170939711Y-97041210D01*
X170939707Y-97041213D01*
X170828213Y-97152707D01*
X170828210Y-97152711D01*
X170740609Y-97283814D01*
X170740602Y-97283827D01*
X170680264Y-97429498D01*
X170680261Y-97429510D01*
X170649500Y-97584153D01*
X167005000Y-97584153D01*
X167005000Y-95594108D01*
X171382000Y-95594108D01*
X171382000Y-95725892D01*
X171383397Y-95731105D01*
X171416108Y-95853187D01*
X171449054Y-95910250D01*
X171482000Y-95967314D01*
X171575186Y-96060500D01*
X171689314Y-96126392D01*
X171816608Y-96160500D01*
X171816610Y-96160500D01*
X171948390Y-96160500D01*
X171948392Y-96160500D01*
X172075686Y-96126392D01*
X172189814Y-96060500D01*
X172283000Y-95967314D01*
X172348892Y-95853186D01*
X172383000Y-95725892D01*
X172383000Y-95594108D01*
X172348892Y-95466814D01*
X172283000Y-95352686D01*
X172189814Y-95259500D01*
X172132750Y-95226554D01*
X172075687Y-95193608D01*
X172012039Y-95176554D01*
X171948392Y-95159500D01*
X171816608Y-95159500D01*
X171689312Y-95193608D01*
X171575186Y-95259500D01*
X171575183Y-95259502D01*
X171482002Y-95352683D01*
X171482000Y-95352686D01*
X171416108Y-95466812D01*
X171382000Y-95594108D01*
X167005000Y-95594108D01*
X167005000Y-92871153D01*
X182799500Y-92871153D01*
X182799500Y-93028846D01*
X182830261Y-93183489D01*
X182830264Y-93183501D01*
X182890602Y-93329172D01*
X182890609Y-93329185D01*
X182978210Y-93460288D01*
X182978213Y-93460292D01*
X183089707Y-93571786D01*
X183089711Y-93571789D01*
X183220814Y-93659390D01*
X183220827Y-93659397D01*
X183348828Y-93712416D01*
X183366503Y-93719737D01*
X183512285Y-93748735D01*
X183521153Y-93750499D01*
X183521156Y-93750500D01*
X183521158Y-93750500D01*
X183678844Y-93750500D01*
X183678845Y-93750499D01*
X183833497Y-93719737D01*
X183979179Y-93659394D01*
X183979185Y-93659390D01*
X184110875Y-93571398D01*
X184177553Y-93550520D01*
X184179766Y-93550500D01*
X191149903Y-93550500D01*
X191216942Y-93570185D01*
X191237584Y-93586819D01*
X191363181Y-93712416D01*
X191396666Y-93773739D01*
X191399500Y-93800097D01*
X191399500Y-94820234D01*
X191379815Y-94887273D01*
X191378602Y-94889125D01*
X191290609Y-95020814D01*
X191290602Y-95020827D01*
X191230264Y-95166498D01*
X191230261Y-95166510D01*
X191199500Y-95321153D01*
X191199500Y-95478846D01*
X191230261Y-95633489D01*
X191230264Y-95633501D01*
X191290602Y-95779172D01*
X191290609Y-95779185D01*
X191378210Y-95910288D01*
X191378213Y-95910292D01*
X191489707Y-96021786D01*
X191489711Y-96021789D01*
X191620814Y-96109390D01*
X191620827Y-96109397D01*
X191766498Y-96169735D01*
X191766503Y-96169737D01*
X191909108Y-96198103D01*
X191921153Y-96200499D01*
X191921156Y-96200500D01*
X191921158Y-96200500D01*
X192078844Y-96200500D01*
X192078845Y-96200499D01*
X192233497Y-96169737D01*
X192379179Y-96109394D01*
X192510289Y-96021789D01*
X192621789Y-95910289D01*
X192709394Y-95779179D01*
X192769737Y-95633497D01*
X192800500Y-95478842D01*
X192800500Y-95321158D01*
X192800500Y-95321155D01*
X192800499Y-95321153D01*
X192787382Y-95255211D01*
X192769737Y-95166503D01*
X192769735Y-95166498D01*
X192709397Y-95020827D01*
X192709390Y-95020814D01*
X192621398Y-94889125D01*
X192600520Y-94822447D01*
X192600500Y-94820234D01*
X192600500Y-93420945D01*
X192600500Y-93420943D01*
X192559577Y-93268216D01*
X192559573Y-93268209D01*
X192480524Y-93131290D01*
X192480521Y-93131286D01*
X192480520Y-93131284D01*
X192368716Y-93019480D01*
X192368715Y-93019479D01*
X192364385Y-93015149D01*
X192364374Y-93015139D01*
X191937590Y-92588355D01*
X191937588Y-92588352D01*
X191818717Y-92469481D01*
X191818716Y-92469480D01*
X191731904Y-92419360D01*
X191731904Y-92419359D01*
X191731900Y-92419358D01*
X191681785Y-92390423D01*
X191529057Y-92349499D01*
X191370943Y-92349499D01*
X191363347Y-92349499D01*
X191363331Y-92349500D01*
X184179766Y-92349500D01*
X184112727Y-92329815D01*
X184110875Y-92328602D01*
X183979185Y-92240609D01*
X183979172Y-92240602D01*
X183833501Y-92180264D01*
X183833489Y-92180261D01*
X183678845Y-92149500D01*
X183678842Y-92149500D01*
X183521158Y-92149500D01*
X183521155Y-92149500D01*
X183366510Y-92180261D01*
X183366498Y-92180264D01*
X183220827Y-92240602D01*
X183220814Y-92240609D01*
X183089711Y-92328210D01*
X183089707Y-92328213D01*
X182978213Y-92439707D01*
X182978210Y-92439711D01*
X182890609Y-92570814D01*
X182890602Y-92570827D01*
X182830264Y-92716498D01*
X182830261Y-92716510D01*
X182799500Y-92871153D01*
X167005000Y-92871153D01*
X167005000Y-89124500D01*
X167024685Y-89057461D01*
X167077489Y-89011706D01*
X167129000Y-89000500D01*
X206675500Y-89000500D01*
X206742539Y-89020185D01*
G37*
G04 #@! TD.AperFunction*
G04 #@! TD*
M02*
