M48
; DRILL file KiCad 10.0.6 date 2026-09-25T16:03:34
; FORMAT={-:-/ absolute / metric / decimal}
; #@! TF.CreationDate,2026-09-25T16:03:34+03:00
; #@! TF.GenerationSoftware,Kicad,Pcbnew,10.0.6
; #@! TF.FileFunction,MixedPlating,1,2
FMAT,2
METRIC
; #@! TA.AperFunction,Plated,PTH,ViaDrill
T1C0.300
; #@! TA.AperFunction,Plated,PTH,ComponentDrill
T2C0.600
; #@! TA.AperFunction,Plated,PTH,ComponentDrill
T3C1.600
; #@! TA.AperFunction,NonPlated,NPTH,ComponentDrill
T4C0.700
%
G90
G05
T1
X169.45Y-90.75
X171.45Y-97.663
X174.052Y-100.987
X174.21Y-100.203
X174.55Y-111.2
X174.971Y-95.965
X175.7Y-103.8
X176.45Y-99.0
X179.07Y-98.999
X179.197Y-102.108
X179.529Y-107.699
X179.75Y-100.7
X183.6Y-92.95
X189.865Y-106.045
X190.35Y-112.4
X191.516Y-101.092
X192.0Y-95.4
X192.1Y-89.8
X200.1Y-104.7
X204.7Y-112.4
X205.15Y-90.65
T3
X201.676Y-97.536
X201.676Y-102.616
X201.676Y-107.696
T4
X171.882Y-95.66
X171.882Y-101.44
T2
G00X168.403Y-94.23
M15
G01X168.002Y-94.23
M16
G05
G00X168.403Y-102.87
M15
G01X168.002Y-102.87
M16
G05
G00X172.762Y-94.23
M15
G01X172.063Y-94.23
M16
G05
G00X172.762Y-102.87
M15
G01X172.063Y-102.87
M16
G05
M30
